{
    "asset" : {
        "generator" : "Khronos glTF Blender I/O v1.6.16",
        "version" : "2.0"
    },
    "scene" : 0,
    "scenes" : [
        {
            "name" : "Scene",
            "nodes" : [
                0,
                1,
                2,
                3
            ]
        }
    ],
    "nodes" : [
        {
            "name" : "Light",
            "rotation" : [
                0.16907575726509094,
                0.7558803558349609,
                -0.27217137813568115,
                0.570947527885437
            ],
            "translation" : [
                4.076245307922363,
                5.903861999511719,
                -1.0054539442062378
            ]
        },
        {
            "name" : "Camera",
            "rotation" : [
                0.483536034822464,
                0.33687159419059753,
                -0.20870360732078552,
                0.7804827094078064
            ],
            "translation" : [
                7.358891487121582,
                4.958309173583984,
                6.925790786743164
            ]
        },
        {
            "mesh" : 0,
            "name" : "Cylinder",
            "translation" : [
                0,
                0.029999999329447746,
                0
            ]
        },
        {
            "mesh" : 1,
            "name" : "Cube",
            "scale" : [
                0.30000001192092896,
                1,
                1
            ],
            "translation" : [
                0,
                0.03845066949725151,
                -0.027312085032463074
            ]
        }
    ],
    "materials" : [
        {
            "doubleSided" : true,
            "name" : "Material.001",
            "pbrMetallicRoughness" : {
                "baseColorFactor" : [
                    0.03310238569974899,
                    0.03310238569974899,
                    0.03310238569974899,
                    1
                ],
                "roughnessFactor" : 0.21212121844291687
            }
        },
        {
            "doubleSided" : true,
            "emissiveFactor" : [
                1,
                0,
                0.08670602738857269
            ],
            "name" : "Material.002",
            "pbrMetallicRoughness" : {}
        }
    ],
    "meshes" : [
        {
            "name" : "Cylinder",
            "primitives" : [
                {
                    "attributes" : {
                        "POSITION" : 0,
                        "NORMAL" : 1,
                        "TEXCOORD_0" : 2
                    },
                    "indices" : 3,
                    "material" : 0
                }
            ]
        },
        {
            "name" : "Cube.001",
            "primitives" : [
                {
                    "attributes" : {
                        "POSITION" : 4,
                        "NORMAL" : 5,
                        "TEXCOORD_0" : 6
                    },
                    "indices" : 7,
                    "material" : 1
                }
            ]
        }
    ],
    "accessors" : [
        {
            "bufferView" : 0,
            "componentType" : 5126,
            "count" : 227,
            "max" : [
                0.05000000074505806,
                0.02900375798344612,
                0.05000000074505806
            ],
            "min" : [
                -0.05000000074505806,
                -0.029529862105846405,
                -0.05000000074505806
            ],
            "type" : "VEC3"
        },
        {
            "bufferView" : 1,
            "componentType" : 5126,
            "count" : 227,
            "type" : "VEC3"
        },
        {
            "bufferView" : 2,
            "componentType" : 5126,
            "count" : 227,
            "type" : "VEC2"
        },
        {
            "bufferView" : 3,
            "componentType" : 5123,
            "count" : 948,
            "type" : "SCALAR"
        },
        {
            "bufferView" : 4,
            "componentType" : 5126,
            "count" : 30,
            "max" : [
                0.02500000037252903,
                0.02322903275489807,
                0.02500000037252903
            ],
            "min" : [
                -0.02500000037252903,
                -0.02500000037252903,
                -0.02495748922228813
            ],
            "type" : "VEC3"
        },
        {
            "bufferView" : 5,
            "componentType" : 5126,
            "count" : 30,
            "type" : "VEC3"
        },
        {
            "bufferView" : 6,
            "componentType" : 5126,
            "count" : 30,
            "type" : "VEC2"
        },
        {
            "bufferView" : 7,
            "componentType" : 5123,
            "count" : 48,
            "type" : "SCALAR"
        }
    ],
    "bufferViews" : [
        {
            "buffer" : 0,
            "byteLength" : 2724,
            "byteOffset" : 0
        },
        {
            "buffer" : 0,
            "byteLength" : 2724,
            "byteOffset" : 2724
        },
        {
            "buffer" : 0,
            "byteLength" : 1816,
            "byteOffset" : 5448
        },
        {
            "buffer" : 0,
            "byteLength" : 1896,
            "byteOffset" : 7264
        },
        {
            "buffer" : 0,
            "byteLength" : 360,
            "byteOffset" : 9160
        },
        {
            "buffer" : 0,
            "byteLength" : 360,
            "byteOffset" : 9520
        },
        {
            "buffer" : 0,
            "byteLength" : 240,
            "byteOffset" : 9880
        },
        {
            "buffer" : 0,
            "byteLength" : 96,
            "byteOffset" : 10120
        }
    ],
    "buffers" : [
        {
            "byteLength" : 10216,
            "uri" : "data:application/octet-stream;base64,"
        }
    ]
}
