{
    "asset" : {
        "generator" : "Khronos glTF Blender I/O v1.6.16",
        "version" : "2.0"
    },
    "scene" : 0,
    "scenes" : [
        {
            "name" : "Scene",
            "nodes" : [
                0,
                1,
                2,
                3,
                4,
                5,
                6,
                7,
                8
            ]
        }
    ],
    "nodes" : [
        {
            "name" : "Light",
            "rotation" : [
                -0.2721714377403259,
                0.5709474682807922,
                -0.16907575726509094,
                -0.7558804750442505
            ],
            "translation" : [
                -4.076245307922363,
                5.903861999511719,
                1.005454182624817
            ]
        },
        {
            "mesh" : 0,
            "name" : "Platform",
            "rotation" : [
                0,
                1,
                0,
                -1.6292068494294654e-07
            ],
            "translation" : [
                0,
                -0.05000000447034836,
                0
            ]
        },
        {
            "mesh" : 1,
            "name" : "Main Support",
            "rotation" : [
                0,
                1,
                0,
                -1.6292068494294654e-07
            ],
            "scale" : [
                1,
                1,
                4
            ]
        },
        {
            "mesh" : 2,
            "name" : "Small Support",
            "rotation" : [
                0,
                0.80901700258255,
                0,
                0.5877852439880371
            ],
            "scale" : [
                1,
                1,
                4
            ]
        },
        {
            "mesh" : 2,
            "name" : "Small Support.001",
            "rotation" : [
                0,
                0.8090168833732605,
                0,
                -0.5877854228019714
            ],
            "scale" : [
                1,
                1,
                4
            ]
        },
        {
            "mesh" : 2,
            "name" : "Small Support.002",
            "rotation" : [
                0,
                0.30901700258255005,
                0,
                0.9510565400123596
            ],
            "scale" : [
                1,
                1,
                4
            ]
        },
        {
            "mesh" : 2,
            "name" : "Small Support.003",
            "rotation" : [
                0,
                0.30901679396629333,
                0,
                -0.9510565996170044
            ],
            "scale" : [
                1,
                1,
                4
            ]
        },
        {
            "mesh" : 3,
            "name" : "Tray",
            "rotation" : [
                0,
                1,
                0,
                -1.6292068494294654e-07
            ],
            "translation" : [
                0,
                0.550000011920929,
                0
            ]
        },
        {
            "mesh" : 4,
            "name" : "Projector",
            "rotation" : [
                0,
                1,
                0,
                -1.6292068494294654e-07
            ],
            "translation" : [
                0,
                0.5200001001358032,
                0
            ]
        }
    ],
    "materials" : [
        {
            "doubleSided" : true,
            "name" : "Material.001",
            "pbrMetallicRoughness" : {
                "baseColorFactor" : [
                    0.017121650278568268,
                    0,
                    0.07323553413152695,
                    1
                ],
                "metallicFactor" : 0,
                "roughnessFactor" : 0.5
            }
        },
        {
            "doubleSided" : true,
            "name" : "Metal",
            "pbrMetallicRoughness" : {
                "baseColorFactor" : [
                    0.04392662271857262,
                    0.13631530106067657,
                    0.15232475101947784,
                    1
                ],
                "roughnessFactor" : 0.5
            }
        },
        {
            "doubleSided" : true,
            "name" : "Projector",
            "pbrMetallicRoughness" : {
                "baseColorFactor" : [
                    0,
                    0,
                    0,
                    1
                ],
                "metallicFactor" : 0,
                "roughnessFactor" : 0.5
            }
        }
    ],
    "meshes" : [
        {
            "name" : "Cylinder.009",
            "primitives" : [
                {
                    "attributes" : {
                        "POSITION" : 0,
                        "NORMAL" : 1,
                        "TEXCOORD_0" : 2
                    },
                    "indices" : 3,
                    "material" : 0
                }
            ]
        },
        {
            "name" : "Cube.001",
            "primitives" : [
                {
                    "attributes" : {
                        "POSITION" : 4,
                        "NORMAL" : 5,
                        "TEXCOORD_0" : 6
                    },
                    "indices" : 7,
                    "material" : 1
                }
            ]
        },
        {
            "name" : "Cube.002",
            "primitives" : [
                {
                    "attributes" : {
                        "POSITION" : 8,
                        "NORMAL" : 9,
                        "TEXCOORD_0" : 10
                    },
                    "indices" : 7,
                    "material" : 1
                }
            ]
        },
        {
            "name" : "Cylinder.006",
            "primitives" : [
                {
                    "attributes" : {
                        "POSITION" : 11,
                        "NORMAL" : 12,
                        "TEXCOORD_0" : 13
                    },
                    "indices" : 14,
                    "material" : 1
                }
            ]
        },
        {
            "name" : "Cylinder.010",
            "primitives" : [
                {
                    "attributes" : {
                        "POSITION" : 15,
                        "NORMAL" : 16,
                        "TEXCOORD_0" : 17
                    },
                    "indices" : 18,
                    "material" : 2
                }
            ]
        }
    ],
    "accessors" : [
        {
            "bufferView" : 0,
            "componentType" : 5126,
            "count" : 1029,
            "max" : [
                2,
                0.05000000074505806,
                2
            ],
            "min" : [
                -2,
                -0.05000000074505806,
                -2
            ],
            "type" : "VEC3"
        },
        {
            "bufferView" : 1,
            "componentType" : 5126,
            "count" : 1029,
            "type" : "VEC3"
        },
        {
            "bufferView" : 2,
            "componentType" : 5126,
            "count" : 1029,
            "type" : "VEC2"
        },
        {
            "bufferView" : 3,
            "componentType" : 5123,
            "count" : 3060,
            "type" : "SCALAR"
        },
        {
            "bufferView" : 4,
            "componentType" : 5126,
            "count" : 88,
            "max" : [
                0.02500000223517418,
                2.9050002098083496,
                -0.3675000071525574
            ],
            "min" : [
                -0.02500000223517418,
                -0.05499999597668648,
                -0.3824999928474426
            ],
            "type" : "VEC3"
        },
        {
            "bufferView" : 5,
            "componentType" : 5126,
            "count" : 88,
            "type" : "VEC3"
        },
        {
            "bufferView" : 6,
            "componentType" : 5126,
            "count" : 88,
            "type" : "VEC2"
        },
        {
            "bufferView" : 7,
            "componentType" : 5123,
            "count" : 180,
            "type" : "SCALAR"
        },
        {
            "bufferView" : 8,
            "componentType" : 5126,
            "count" : 88,
            "max" : [
                0.02500000223517418,
                0.505000114440918,
                -0.3675000071525574
            ],
            "min" : [
                -0.02500000223517418,
                -0.05499999597668648,
                -0.3824999928474426
            ],
            "type" : "VEC3"
        },
        {
            "bufferView" : 9,
            "componentType" : 5126,
            "count" : 88,
            "type" : "VEC3"
        },
        {
            "bufferView" : 10,
            "componentType" : 5126,
            "count" : 88,
            "type" : "VEC2"
        },
        {
            "bufferView" : 11,
            "componentType" : 5126,
            "count" : 1727,
            "max" : [
                1.5199999809265137,
                0.05000000074505806,
                1.5199999809265137
            ],
            "min" : [
                -1.5199999809265137,
                -0.05000000074505806,
                -1.5199999809265137
            ],
            "type" : "VEC3"
        },
        {
            "bufferView" : 12,
            "componentType" : 5126,
            "count" : 1727,
            "type" : "VEC3"
        },
        {
            "bufferView" : 13,
            "componentType" : 5126,
            "count" : 1727,
            "type" : "VEC2"
        },
        {
            "bufferView" : 14,
            "componentType" : 5123,
            "count" : 4608,
            "type" : "SCALAR"
        },
        {
            "bufferView" : 15,
            "componentType" : 5126,
            "count" : 1544,
            "max" : [
                1.5,
                0.004999999888241291,
                1.5
            ],
            "min" : [
                -1.5,
                -0.004999999888241291,
                -1.5
            ],
            "type" : "VEC3"
        },
        {
            "bufferView" : 16,
            "componentType" : 5126,
            "count" : 1544,
            "type" : "VEC3"
        },
        {
            "bufferView" : 17,
            "componentType" : 5126,
            "count" : 1544,
            "type" : "VEC2"
        },
        {
            "bufferView" : 18,
            "componentType" : 5123,
            "count" : 3072,
            "type" : "SCALAR"
        }
    ],
    "bufferViews" : [
        {
            "buffer" : 0,
            "byteLength" : 12348,
            "byteOffset" : 0
        },
        {
            "buffer" : 0,
            "byteLength" : 12348,
            "byteOffset" : 12348
        },
        {
            "buffer" : 0,
            "byteLength" : 8232,
            "byteOffset" : 24696
        },
        {
            "buffer" : 0,
            "byteLength" : 6120,
            "byteOffset" : 32928
        },
        {
            "buffer" : 0,
            "byteLength" : 1056,
            "byteOffset" : 39048
        },
        {
            "buffer" : 0,
            "byteLength" : 1056,
            "byteOffset" : 40104
        },
        {
            "buffer" : 0,
            "byteLength" : 704,
            "byteOffset" : 41160
        },
        {
            "buffer" : 0,
            "byteLength" : 360,
            "byteOffset" : 41864
        },
        {
            "buffer" : 0,
            "byteLength" : 1056,
            "byteOffset" : 42224
        },
        {
            "buffer" : 0,
            "byteLength" : 1056,
            "byteOffset" : 43280
        },
        {
            "buffer" : 0,
            "byteLength" : 704,
            "byteOffset" : 44336
        },
        {
            "buffer" : 0,
            "byteLength" : 20724,
            "byteOffset" : 45040
        },
        {
            "buffer" : 0,
            "byteLength" : 20724,
            "byteOffset" : 65764
        },
        {
            "buffer" : 0,
            "byteLength" : 13816,
            "byteOffset" : 86488
        },
        {
            "buffer" : 0,
            "byteLength" : 9216,
            "byteOffset" : 100304
        },
        {
            "buffer" : 0,
            "byteLength" : 18528,
            "byteOffset" : 109520
        },
        {
            "buffer" : 0,
            "byteLength" : 18528,
            "byteOffset" : 128048
        },
        {
            "buffer" : 0,
            "byteLength" : 12352,
            "byteOffset" : 146576
        },
        {
            "buffer" : 0,
            "byteLength" : 6144,
            "byteOffset" : 158928
        }
    ],
    "buffers" : [
        {
            "byteLength" : 165072,
            "uri" : "data:application/octet-stream;base64,"
        }
    ]
}
